# xmcd
#
# Track frame offsets: 
#        150
#        28031
#        39282
#        53220
#        68487
#        82475
#        103343
#        122543
#        136999
#        156273
#        173275
#        193597
#        205029
#        214848
#        228002
#
# Disc length: 4784 seconds
#
# Revision: 0
# Processed by: cddbd v1.5.2PL0 Copyright (c) Steve Scherf et al.
# Submitted via: ExactAudioCopyFreeDBPlugin 1.0
#
DISCID=c612ae0f
DTITLE=Doug Jerebine - Is Jesse Harper
DYEAR=2012
DGENRE=New Zealand: Country/Blues
TTITLE0=Midnight Sun
TTITLE1=Hole in My Hand
TTITLE2=Fall Down
TTITLE3=Ashes and Matches
TTITLE4=Thawed Ice
TTITLE5=Ain't So Hard to Do
TTITLE6=Good News Blues
TTITLE7=Reddened Eyes
TTITLE8=Circles
TTITLE9=Idea
TTITLE10=(The Whole World's) Hangin' on My Side
TTITLE11=Bengal Tiger
TTITLE12=Tea for Two
TTITLE13=Fire
TTITLE14=Nava Shanti
EXTD=
EXTT0=
EXTT1=
EXTT2=
EXTT3=
EXTT4=
EXTT5=
EXTT6=
EXTT7=
EXTT8=
EXTT9=
EXTT10=
EXTT11=
EXTT12=
EXTT13=
EXTT14=
PLAYORDER=
